<mxfile host="app.diagrams.net" agent="Mozilla/5.0 (Windows NT 10.0; Win64; x64) AppleWebKit/537.36 (KHTML, like Gecko) Chrome/134.0.0.0 Safari/537.36" version="26.1.0">
  <diagram name="Side-1" id="VotIWypFstvTbY9lTl2X">
    <mxGraphModel dx="1549" dy="654" grid="0" gridSize="10" guides="1" tooltips="1" connect="1" arrows="1" fold="1" page="0" pageScale="1" pageWidth="827" pageHeight="1169" math="0" shadow="0">
      <root>
        <mxCell id="0" />
        <mxCell id="1" parent="0" />
        <mxCell id="FO-y-eWGx9Z6rc1-PJ-y-1" value="Pause" style="swimlane;fontStyle=1;align=center;verticalAlign=top;childLayout=stackLayout;horizontal=1;startSize=26;horizontalStack=0;resizeParent=1;resizeParentMax=0;resizeLast=0;collapsible=1;marginBottom=0;whiteSpace=wrap;html=1;" vertex="1" parent="1">
          <mxGeometry x="155" y="230" width="190" height="180" as="geometry" />
        </mxCell>
        <mxCell id="FO-y-eWGx9Z6rc1-PJ-y-2" value="&lt;div&gt;+ time: start&lt;/div&gt;&lt;div&gt;+ time: slut&lt;/div&gt;&lt;div&gt;+ time: tid&lt;/div&gt;" style="text;strokeColor=none;fillColor=none;align=left;verticalAlign=top;spacingLeft=4;spacingRight=4;overflow=hidden;rotatable=0;points=[[0,0.5],[1,0.5]];portConstraint=eastwest;whiteSpace=wrap;html=1;" vertex="1" parent="FO-y-eWGx9Z6rc1-PJ-y-1">
          <mxGeometry y="26" width="190" height="74" as="geometry" />
        </mxCell>
        <mxCell id="FO-y-eWGx9Z6rc1-PJ-y-3" value="" style="line;strokeWidth=1;fillColor=none;align=left;verticalAlign=middle;spacingTop=-1;spacingLeft=3;spacingRight=3;rotatable=0;labelPosition=right;points=[];portConstraint=eastwest;strokeColor=inherit;" vertex="1" parent="FO-y-eWGx9Z6rc1-PJ-y-1">
          <mxGeometry y="100" width="190" height="8" as="geometry" />
        </mxCell>
        <mxCell id="FO-y-eWGx9Z6rc1-PJ-y-4" value="+ bere(int): void&lt;div&gt;+ playSound(boolean): void&lt;/div&gt;&lt;div&gt;+ stopSound(boolean): void&lt;/div&gt;&lt;div&gt;+ playWhiteNoise(boolean): void&lt;/div&gt;" style="text;strokeColor=none;fillColor=none;align=left;verticalAlign=top;spacingLeft=4;spacingRight=4;overflow=hidden;rotatable=0;points=[[0,0.5],[1,0.5]];portConstraint=eastwest;whiteSpace=wrap;html=1;" vertex="1" parent="FO-y-eWGx9Z6rc1-PJ-y-1">
          <mxGeometry y="108" width="190" height="72" as="geometry" />
        </mxCell>
        <mxCell id="FO-y-eWGx9Z6rc1-PJ-y-5" value="LangPause" style="swimlane;fontStyle=1;align=center;verticalAlign=top;childLayout=stackLayout;horizontal=1;startSize=26;horizontalStack=0;resizeParent=1;resizeParentMax=0;resizeLast=0;collapsible=1;marginBottom=0;whiteSpace=wrap;html=1;" vertex="1" parent="1">
          <mxGeometry x="61" y="451" width="190" height="110" as="geometry" />
        </mxCell>
        <mxCell id="FO-y-eWGx9Z6rc1-PJ-y-6" value="&lt;div&gt;+ time: start&lt;/div&gt;&lt;div&gt;+ time: slut&lt;/div&gt;&lt;div&gt;+ time: tid&lt;/div&gt;" style="text;strokeColor=none;fillColor=none;align=left;verticalAlign=top;spacingLeft=4;spacingRight=4;overflow=hidden;rotatable=0;points=[[0,0.5],[1,0.5]];portConstraint=eastwest;whiteSpace=wrap;html=1;" vertex="1" parent="FO-y-eWGx9Z6rc1-PJ-y-5">
          <mxGeometry y="26" width="190" height="54" as="geometry" />
        </mxCell>
        <mxCell id="FO-y-eWGx9Z6rc1-PJ-y-7" value="" style="line;strokeWidth=1;fillColor=none;align=left;verticalAlign=middle;spacingTop=-1;spacingLeft=3;spacingRight=3;rotatable=0;labelPosition=right;points=[];portConstraint=eastwest;strokeColor=inherit;" vertex="1" parent="FO-y-eWGx9Z6rc1-PJ-y-5">
          <mxGeometry y="80" width="190" height="8" as="geometry" />
        </mxCell>
        <mxCell id="FO-y-eWGx9Z6rc1-PJ-y-8" value="+ beregnTid(int): void&lt;div&gt;&lt;br&gt;&lt;/div&gt;" style="text;strokeColor=none;fillColor=none;align=left;verticalAlign=top;spacingLeft=4;spacingRight=4;overflow=hidden;rotatable=0;points=[[0,0.5],[1,0.5]];portConstraint=eastwest;whiteSpace=wrap;html=1;" vertex="1" parent="FO-y-eWGx9Z6rc1-PJ-y-5">
          <mxGeometry y="88" width="190" height="22" as="geometry" />
        </mxCell>
        <mxCell id="FO-y-eWGx9Z6rc1-PJ-y-9" value="KortPause" style="swimlane;fontStyle=1;align=center;verticalAlign=top;childLayout=stackLayout;horizontal=1;startSize=26;horizontalStack=0;resizeParent=1;resizeParentMax=0;resizeLast=0;collapsible=1;marginBottom=0;whiteSpace=wrap;html=1;" vertex="1" parent="1">
          <mxGeometry x="266" y="451" width="190" height="110" as="geometry">
            <mxRectangle x="540" y="150" width="100" height="30" as="alternateBounds" />
          </mxGeometry>
        </mxCell>
        <mxCell id="FO-y-eWGx9Z6rc1-PJ-y-10" value="&lt;div&gt;+ time: start&lt;/div&gt;&lt;div&gt;+ time: slut&lt;/div&gt;&lt;div&gt;+ time: tid&lt;/div&gt;" style="text;strokeColor=none;fillColor=none;align=left;verticalAlign=top;spacingLeft=4;spacingRight=4;overflow=hidden;rotatable=0;points=[[0,0.5],[1,0.5]];portConstraint=eastwest;whiteSpace=wrap;html=1;" vertex="1" parent="FO-y-eWGx9Z6rc1-PJ-y-9">
          <mxGeometry y="26" width="190" height="54" as="geometry" />
        </mxCell>
        <mxCell id="FO-y-eWGx9Z6rc1-PJ-y-11" value="" style="line;strokeWidth=1;fillColor=none;align=left;verticalAlign=middle;spacingTop=-1;spacingLeft=3;spacingRight=3;rotatable=0;labelPosition=right;points=[];portConstraint=eastwest;strokeColor=inherit;" vertex="1" parent="FO-y-eWGx9Z6rc1-PJ-y-9">
          <mxGeometry y="80" width="190" height="8" as="geometry" />
        </mxCell>
        <mxCell id="FO-y-eWGx9Z6rc1-PJ-y-12" value="+ beregnTid(int): void&lt;div&gt;&lt;br&gt;&lt;/div&gt;" style="text;strokeColor=none;fillColor=none;align=left;verticalAlign=top;spacingLeft=4;spacingRight=4;overflow=hidden;rotatable=0;points=[[0,0.5],[1,0.5]];portConstraint=eastwest;whiteSpace=wrap;html=1;" vertex="1" parent="FO-y-eWGx9Z6rc1-PJ-y-9">
          <mxGeometry y="88" width="190" height="22" as="geometry" />
        </mxCell>
        <mxCell id="FO-y-eWGx9Z6rc1-PJ-y-13" value="Controller" style="swimlane;fontStyle=1;align=center;verticalAlign=top;childLayout=stackLayout;horizontal=1;startSize=26;horizontalStack=0;resizeParent=1;resizeParentMax=0;resizeLast=0;collapsible=1;marginBottom=0;whiteSpace=wrap;html=1;" vertex="1" parent="1">
          <mxGeometry x="467" y="230" width="190" height="160" as="geometry">
            <mxRectangle x="540" y="150" width="100" height="30" as="alternateBounds" />
          </mxGeometry>
        </mxCell>
        <mxCell id="FO-y-eWGx9Z6rc1-PJ-y-14" value="&lt;div&gt;+ Pomodoro[]: pomo&lt;/div&gt;&lt;div&gt;+ Pause[]: pause&lt;/div&gt;&lt;div&gt;+ day: dag&lt;/div&gt;&lt;div&gt;+ month: mÃ¥ned&lt;/div&gt;&lt;div&gt;+ year: tid&lt;/div&gt;" style="text;strokeColor=none;fillColor=none;align=left;verticalAlign=top;spacingLeft=4;spacingRight=4;overflow=hidden;rotatable=0;points=[[0,0.5],[1,0.5]];portConstraint=eastwest;whiteSpace=wrap;html=1;" vertex="1" parent="FO-y-eWGx9Z6rc1-PJ-y-13">
          <mxGeometry y="26" width="190" height="84" as="geometry" />
        </mxCell>
        <mxCell id="FO-y-eWGx9Z6rc1-PJ-y-15" value="" style="line;strokeWidth=1;fillColor=none;align=left;verticalAlign=middle;spacingTop=-1;spacingLeft=3;spacingRight=3;rotatable=0;labelPosition=right;points=[];portConstraint=eastwest;strokeColor=inherit;" vertex="1" parent="FO-y-eWGx9Z6rc1-PJ-y-13">
          <mxGeometry y="110" width="190" height="8" as="geometry" />
        </mxCell>
        <mxCell id="FO-y-eWGx9Z6rc1-PJ-y-16" value="+ beregnTid(int): void&lt;div&gt;&lt;div&gt;+ dato(day, month, year): void&lt;/div&gt;&lt;/div&gt;" style="text;strokeColor=none;fillColor=none;align=left;verticalAlign=top;spacingLeft=4;spacingRight=4;overflow=hidden;rotatable=0;points=[[0,0.5],[1,0.5]];portConstraint=eastwest;whiteSpace=wrap;html=1;" vertex="1" parent="FO-y-eWGx9Z6rc1-PJ-y-13">
          <mxGeometry y="118" width="190" height="42" as="geometry" />
        </mxCell>
        <mxCell id="FO-y-eWGx9Z6rc1-PJ-y-21" value="Pomodoro" style="swimlane;fontStyle=1;align=center;verticalAlign=top;childLayout=stackLayout;horizontal=1;startSize=26;horizontalStack=0;resizeParent=1;resizeParentMax=0;resizeLast=0;collapsible=1;marginBottom=0;whiteSpace=wrap;html=1;" vertex="1" parent="1">
          <mxGeometry x="-144" y="249" width="190" height="180" as="geometry" />
        </mxCell>
        <mxCell id="FO-y-eWGx9Z6rc1-PJ-y-22" value="+ Sound: WhiteNoise&lt;div&gt;+ time: start&lt;/div&gt;&lt;div&gt;+ time: slut&lt;/div&gt;&lt;div&gt;+ time: tid&lt;/div&gt;" style="text;strokeColor=none;fillColor=none;align=left;verticalAlign=top;spacingLeft=4;spacingRight=4;overflow=hidden;rotatable=0;points=[[0,0.5],[1,0.5]];portConstraint=eastwest;whiteSpace=wrap;html=1;" vertex="1" parent="FO-y-eWGx9Z6rc1-PJ-y-21">
          <mxGeometry y="26" width="190" height="74" as="geometry" />
        </mxCell>
        <mxCell id="FO-y-eWGx9Z6rc1-PJ-y-23" value="" style="line;strokeWidth=1;fillColor=none;align=left;verticalAlign=middle;spacingTop=-1;spacingLeft=3;spacingRight=3;rotatable=0;labelPosition=right;points=[];portConstraint=eastwest;strokeColor=inherit;" vertex="1" parent="FO-y-eWGx9Z6rc1-PJ-y-21">
          <mxGeometry y="100" width="190" height="8" as="geometry" />
        </mxCell>
        <mxCell id="FO-y-eWGx9Z6rc1-PJ-y-24" value="+ beregnTid(int): void&lt;div&gt;+ playSound(boolean): void&lt;/div&gt;&lt;div&gt;+ stopSound(boolean): void&lt;/div&gt;&lt;div&gt;+ playWhiteNoise(boolean): void&lt;/div&gt;" style="text;strokeColor=none;fillColor=none;align=left;verticalAlign=top;spacingLeft=4;spacingRight=4;overflow=hidden;rotatable=0;points=[[0,0.5],[1,0.5]];portConstraint=eastwest;whiteSpace=wrap;html=1;" vertex="1" parent="FO-y-eWGx9Z6rc1-PJ-y-21">
          <mxGeometry y="108" width="190" height="72" as="geometry" />
        </mxCell>
      </root>
    </mxGraphModel>
  </diagram>
</mxfile>
